<svg width="97" height="32" viewBox="0 0 97 32" fill="none" xmlns="http://www.w3.org/2000/svg">
<path d="M2.60349 30.1436C3.28518 29.847 3.78104 29.2381 3.99004 28.5249L8.7781 12.1898C9.28415 10.4432 11.4372 8.74844 13.2557 8.74844H35.0563L35.0577 7.66311C35.0605 5.7997 33.5474 4.28941 31.6835 4.29544L18.3579 4.33854L16.1034 1.72068C15.1626 0.627934 13.7928 0 12.3511 0H3.36304C1.50565 0 0 1.50565 0 3.3635V27.921C0 30.4601 2.03627 30.3906 2.60349 30.1436Z" fill="url(#paint0_linear_526_1948)"/>
<path d="M37.4959 10.0781H14.0376C12.2191 10.0781 10.6194 11.2798 10.1129 13.0269L5.47222 29.0376C5.19695 29.9871 4.57874 30.8157 3.71261 31.2926C3.28766 31.5266 2.77187 31.6994 2.16016 31.7268C8.04373 31.6021 32.0289 31.6647 32.0289 31.6647C33.5443 31.6647 34.8771 30.6632 35.2993 29.2081L39.9117 13.2947C40.3779 11.6857 39.1707 10.0791 37.4959 10.0791V10.0781Z" fill="url(#paint1_linear_526_1948)"/>
<path d="M30.4891 18.2028H26.4509L27.5417 14.1312C27.627 13.8123 27.4379 13.5542 27.1191 13.5542H22.8746C22.5558 13.5542 22.2282 13.8128 22.1429 14.1312L21.052 18.2028H16.947C16.6282 18.2028 16.3006 18.4613 16.2153 18.7797L15.0781 23.0242C14.9928 23.343 15.1819 23.6011 15.5007 23.6011H19.6057L18.5148 27.6727C18.4295 27.9916 18.6186 28.2497 18.9374 28.2497H23.1819C23.5007 28.2497 23.8284 27.9911 23.9136 27.6727L25.0045 23.6011H29.0428C29.3616 23.6011 29.6892 23.3425 29.7745 23.0242L30.9117 18.7797C30.997 18.4609 30.8079 18.2028 30.4891 18.2028Z" fill="white"/>
<path d="M50.9232 15.6884C51.5194 16.2185 51.8178 17.029 51.8178 18.1199V18.5174H47.1882C47.1882 18.9617 47.2879 19.2967 47.486 19.523C47.6847 19.7494 47.9981 19.8622 48.4268 19.8622C48.8164 19.8622 49.1028 19.7806 49.2859 19.6167C49.4691 19.4528 49.5609 19.2348 49.5609 18.9623H51.8172C51.8172 19.7103 51.5326 20.2951 50.964 20.716C50.3949 21.1369 49.5651 21.347 48.4742 21.347C47.3287 21.347 46.4401 21.0798 45.8091 20.5461C45.1781 20.0123 44.8623 19.2036 44.8623 18.1205C44.8623 17.0374 45.1703 16.2581 45.7857 15.7124C46.4011 15.1672 47.2506 14.894 48.3343 14.894C49.418 14.894 50.3276 15.1594 50.9238 15.689L50.9232 15.6884ZM47.1996 17.4187H49.4673C49.4673 17.0993 49.3754 16.8459 49.1923 16.6586C49.0092 16.4713 48.754 16.3782 48.4268 16.3782C47.6943 16.3782 47.2849 16.7252 47.1996 17.4187Z" fill="#D86344"/>
<path d="M60.339 16.9628C60.0742 17.3603 59.6882 17.6527 59.1814 17.8394L60.97 21.2063H58.0707L56.6448 18.2723H55.686V21.2063H53.1025V13.1636H58.0239C58.6003 13.1636 59.0938 13.2746 59.5027 13.4968C59.9115 13.7189 60.2195 14.0191 60.426 14.3968C60.6326 14.775 60.7358 15.1857 60.7358 15.63C60.7358 16.1211 60.6032 16.5654 60.3384 16.9628H60.339ZM57.896 15.2091C57.7555 15.0686 57.5844 14.999 57.3815 14.999H55.6866V16.4837H57.3815C57.5838 16.4837 57.7555 16.4117 57.896 16.2676C58.0365 16.1235 58.1062 15.9464 58.1062 15.7356C58.1062 15.5249 58.0359 15.3496 57.896 15.2097V15.2091Z" fill="#D86344"/>
<path d="M67.5227 15.6884C68.1189 16.2185 68.4173 17.029 68.4173 18.1199V18.5174H63.7883C63.7883 18.9617 63.888 19.2967 64.0861 19.523C64.2848 19.7494 64.5982 19.8622 65.0269 19.8622C65.4165 19.8622 65.7029 19.7806 65.886 19.6167C66.0692 19.4528 66.161 19.2348 66.161 18.9623H68.4173C68.4173 19.7103 68.1327 20.2951 67.5641 20.716C66.995 21.1369 66.1652 21.347 65.0743 21.347C63.9288 21.347 63.0402 21.0798 62.4092 20.5461C61.7782 20.0123 61.4624 19.2036 61.4624 18.1205C61.4624 17.0374 61.7704 16.2581 62.3858 15.7124C63.0012 15.1672 63.8507 14.894 64.9344 14.894C66.0181 14.894 66.9277 15.1594 67.5239 15.689L67.5227 15.6884ZM63.7997 17.4187H66.0674C66.0674 17.0993 65.9755 16.8459 65.7924 16.6586C65.6093 16.4713 65.3541 16.3782 65.0269 16.3782C64.2944 16.3782 63.885 16.7252 63.7997 17.4187Z" fill="#D86344"/>
<path d="M75.1913 15.5426C75.8187 15.9748 76.1321 16.6359 76.1321 17.5238H73.8759C73.8759 16.8226 73.494 16.472 72.7303 16.472C71.9666 16.472 71.5848 16.9121 71.5848 17.7928V18.4592C71.5848 19.3322 71.9823 19.7687 72.7772 19.7687C73.5721 19.7687 73.9695 19.4103 73.9695 18.6934H76.1321C76.1321 19.5898 75.8181 20.2562 75.1913 20.6921C74.5639 21.1286 73.7438 21.3465 72.7303 21.3465C71.6472 21.3465 70.7977 21.0739 70.1817 20.5282C69.5657 19.983 69.2583 19.1797 69.2583 18.12C69.2583 17.0603 69.5663 16.2576 70.1817 15.7119C70.7971 15.1667 71.6466 14.8936 72.7303 14.8936C73.7432 14.8936 74.5639 15.1097 75.1913 15.5426Z" fill="#D86344"/>
<path d="M83.0822 15.7179C83.7018 16.2672 84.0116 17.0682 84.0116 18.12C84.0116 19.1719 83.7018 19.9728 83.0822 20.5222C82.4626 21.0715 81.6113 21.3465 80.5282 21.3465C79.4451 21.3465 78.5955 21.0739 77.9795 20.5282C77.3636 19.983 77.0562 19.1797 77.0562 18.12C77.0562 17.0603 77.3642 16.2576 77.9795 15.7119C78.5949 15.1667 79.4445 14.8936 80.5282 14.8936C81.6119 14.8936 82.4626 15.1685 83.0822 15.7179ZM79.382 17.7928V18.4592C79.382 19.3322 79.7639 19.7687 80.5276 19.7687C81.2913 19.7687 81.6851 19.3322 81.6851 18.4592V17.7928C81.6851 16.9121 81.2991 16.472 80.5276 16.472C79.7561 16.472 79.382 16.9121 79.382 17.7928Z" fill="#D86344"/>
<path d="M89.3654 14.946C89.5059 14.9892 89.5756 15.0144 89.5756 15.0222V16.9747H88.8275C88.3442 16.9747 87.9953 17.0996 87.781 17.3487C87.5667 17.5985 87.4598 17.9683 87.4598 18.4594V21.2068H85.1333V15.0342H87.0389L87.1908 15.9696C87.3313 15.6112 87.5535 15.3404 87.8573 15.1573C88.161 14.9742 88.5039 14.8823 88.8857 14.8823C89.0646 14.8823 89.2249 14.9039 89.3648 14.9466L89.3654 14.946Z" fill="#D86344"/>
<path d="M95.1054 21.2059L94.9067 20.3293C94.4546 21.0072 93.8002 21.3464 92.9428 21.3464C92.0855 21.3464 91.4659 21.0738 91.0138 20.5281C90.5617 19.9829 90.3359 19.176 90.3359 18.1085C90.3359 17.041 90.5617 16.2479 91.0138 15.7064C91.4659 15.1648 92.1089 14.894 92.9428 14.894C93.6519 14.894 94.2288 15.1318 94.6731 15.6073V12.7314H96.9996V21.2065H95.106L95.1054 21.2059ZM92.6618 17.8161V18.4357C92.6618 19.2306 92.9968 19.6281 93.6669 19.6281C94.0097 19.6281 94.2667 19.5074 94.4384 19.2654C94.6095 19.0241 94.6953 18.7083 94.6953 18.3186V17.9326C94.6953 17.5429 94.6095 17.2253 94.4384 16.9798C94.2667 16.7342 94.0097 16.6117 93.6669 16.6117C92.9962 16.6117 92.6618 17.0134 92.6618 17.8161Z" fill="#D86344"/>
<defs>
<linearGradient id="paint0_linear_526_1948" x1="-11.6735" y1="-1.33604" x2="17.1618" y2="17.3727" gradientUnits="userSpaceOnUse">
<stop stop-color="#F98667"/>
<stop offset="1" stop-color="#D86344"/>
</linearGradient>
<linearGradient id="paint1_linear_526_1948" x1="21.3323" y1="4.23626" x2="20.7354" y2="47.8121" gradientUnits="userSpaceOnUse">
<stop stop-color="#F98667"/>
<stop offset="1" stop-color="#D86344"/>
</linearGradient>
</defs>
</svg>
